<svg width="512" height="512" viewBox="0 0 512 512" xmlns="http://www.w3.org/2000/svg">
  <rect width="512" height="512" fill="#1e3a5f"/>
  <rect x="150" y="96" width="216" height="320" rx="26" fill="#f4f6f8"/>
  <circle cx="150" cy="138" r="9" fill="#16293f"/>
  <circle cx="150" cy="178" r="9" fill="#16293f"/>
  <circle cx="150" cy="218" r="9" fill="#16293f"/>
  <circle cx="150" cy="258" r="9" fill="#16293f"/>
  <circle cx="150" cy="298" r="9" fill="#16293f"/>
  <circle cx="150" cy="338" r="9" fill="#16293f"/>
  <circle cx="150" cy="378" r="9" fill="#16293f"/>
  <rect x="192" y="150" width="144" height="10" rx="5" fill="#ccd2db"/>
  <rect x="192" y="192" width="144" height="10" rx="5" fill="#ccd2db"/>
  <rect x="192" y="234" width="100" height="10" rx="5" fill="#ccd2db"/>
  <g transform="rotate(45 356 300)">
    <rect x="332" y="176" width="30" height="216" rx="13" fill="#1b2430"/>
    <polygon points="332,176 362,176 347,138" fill="#1b2430"/>
    <rect x="332" y="176" width="30" height="26" fill="#ccd2db"/>
  </g>
</svg>
